<?xml version="1.0" encoding="UTF-8" standalone="no"?>
<!DOCTYPE svg PUBLIC "-//W3C//DTD SVG 1.1//EN" "http://www.w3.org/Graphics/SVG/1.1/DTD/svg11.dtd">
<svg width="100%" height="100%" viewBox="0 0 1787 414" version="1.1" xmlns="http://www.w3.org/2000/svg" xmlns:xlink="http://www.w3.org/1999/xlink" xml:space="preserve" xmlns:serif="http://www.serif.com/" style="fill-rule:evenodd;clip-rule:evenodd;stroke-linejoin:round;stroke-miterlimit:2;">
    <g transform="matrix(1,0,0,1,-5688.63,-2465.81)">
        <g transform="matrix(1,0,0,1,-0.963255,0)">
            <g transform="matrix(1,0,0,1,-799.374,1896.81)">
                <g transform="matrix(0.377177,0,0,0.377177,5431.99,378.903)">
                    <path d="M7539,749.175C7539,613.859 7429.14,504 7293.82,504L6688.18,504C6552.86,504 6443,613.859 6443,749.175L6443,1354.83C6443,1490.14 6552.86,1600 6688.18,1600L7293.82,1600C7429.14,1600 7539,1490.14 7539,1354.83L7539,749.175Z" style="fill:url(#_Linear1);"/>
                </g>
                <g transform="matrix(0.880128,0,0,0.880128,2095.45,183.642)">
                    <path d="M6745.44,780.399C6798.47,780.399 6833.91,748.282 6833.91,686.473L6833.91,564.976L6809.98,564.976L6809.98,688.291C6809.98,734.648 6785.13,758.281 6746.05,758.281C6705.45,758.281 6681.21,732.527 6681.21,686.776L6681.21,564.976L6657.27,564.976L6657.27,688.291C6657.27,748.282 6693.03,780.399 6745.44,780.399Z" style="fill:white;fill-rule:nonzero;"/>
                    <rect x="6892.69" y="564.976" width="23.936" height="212.09" style="fill:white;fill-rule:nonzero;"/>
                </g>
            </g>
            <g transform="matrix(1.08964,0,0,1.08964,-1025,1954.84)">
                <path d="M6162.23,843.198L6183.12,843.198L6183.12,754.072C6183.12,683.282 6227.05,645.329 6277.37,645.329L6279.5,645.329L6279.5,622.301C6236.43,620.595 6200.18,648.741 6183.12,687.547L6183.12,625.713L6162.23,625.713L6162.23,843.198Z" style="fill:white;fill-rule:nonzero;"/>
                <path d="M6413.83,848.315C6455.62,848.315 6481.63,831.258 6503.81,807.377L6489.31,794.584C6471.4,813.773 6448.37,828.699 6414.68,828.699C6372.04,828.699 6333.23,797.142 6329.39,742.984L6509.78,742.984C6510.2,739.573 6510.2,738.293 6510.2,734.455C6510.2,670.063 6471.4,620.595 6410.42,620.595C6351.57,620.595 6307.22,670.916 6307.22,734.029L6307.22,734.882C6307.22,802.686 6356.68,848.315 6413.83,848.315ZM6329.39,724.221C6333.23,676.033 6366.49,639.785 6409.56,639.785C6459.46,639.785 6484.62,680.297 6487.6,724.221L6329.39,724.221Z" style="fill:white;fill-rule:nonzero;"/>
                <path d="M6636,844.904L6653.91,844.904L6751.57,625.713L6728.11,625.713L6644.96,819.744L6562.66,625.713L6538.35,625.713L6636,844.904Z" style="fill:white;fill-rule:nonzero;"/>
                <path d="M6887.6,848.315C6929.4,848.315 6955.41,831.258 6977.58,807.377L6963.08,794.584C6945.17,813.773 6922.15,828.699 6888.46,828.699C6845.81,828.699 6807.01,797.142 6803.17,742.984L6983.55,742.984C6983.98,739.573 6983.98,738.293 6983.98,734.455C6983.98,670.063 6945.17,620.595 6884.19,620.595C6825.34,620.595 6780.99,670.916 6780.99,734.029L6780.99,734.882C6780.99,802.686 6830.46,848.315 6887.6,848.315ZM6803.17,724.221C6807.01,676.033 6840.27,639.785 6883.34,639.785C6933.23,639.785 6958.39,680.297 6961.38,724.221L6803.17,724.221Z" style="fill:white;fill-rule:nonzero;"/>
                <path d="M7111.06,848.315C7152.42,848.315 7179.29,827.846 7194.22,806.95L7194.22,843.198L7214.69,843.198L7214.69,707.589C7214.69,680.724 7207.01,660.681 7192.51,646.182C7176.73,630.404 7153.28,622.301 7123.85,622.301C7094,622.301 7070.55,629.977 7046.67,641.065L7054.34,659.402C7074.39,649.167 7096.13,641.917 7122.57,641.917C7167.35,641.917 7194.22,664.519 7194.22,708.442L7194.22,717.824C7173.32,712.28 7152.42,708.442 7122.15,708.442C7065.86,708.442 7027.05,734.029 7027.05,779.232L7027.05,780.085C7027.05,825.287 7070.55,848.315 7111.06,848.315ZM7112.34,828.699C7079.08,828.699 7049.23,810.362 7049.23,778.805L7049.23,777.952C7049.23,747.675 7074.81,727.206 7120.87,727.206C7152,727.206 7176.31,732.323 7194.64,737.014L7194.64,761.748C7194.64,801.407 7156.69,828.699 7112.34,828.699Z" style="fill:white;fill-rule:nonzero;"/>
                <rect x="7292.72" y="531.896" width="20.896" height="311.302" style="fill:white;fill-rule:nonzero;"/>
            </g>
        </g>
    </g>
    <defs>
        <linearGradient id="_Linear1" x1="0" y1="0" x2="1" y2="0" gradientUnits="userSpaceOnUse" gradientTransform="matrix(-1096,-717.109,717.109,-1096,7539,1381.66)"><stop offset="0" style="stop-color:rgb(243,18,96);stop-opacity:1"/><stop offset="1" style="stop-color:rgb(120,13,227);stop-opacity:1"/></linearGradient>
    </defs>
</svg>
