<?xml version="1.0" encoding="UTF-8" standalone="no"?>
<!DOCTYPE svg PUBLIC "-//W3C//DTD SVG 1.1//EN" "http://www.w3.org/Graphics/SVG/1.1/DTD/svg11.dtd">
<svg width="100%" height="100%" viewBox="0 0 414 414" version="1.1" xmlns="http://www.w3.org/2000/svg" xmlns:xlink="http://www.w3.org/1999/xlink" xml:space="preserve" xmlns:serif="http://www.serif.com/" style="fill-rule:evenodd;clip-rule:evenodd;stroke-linejoin:round;stroke-miterlimit:2;">
    <g transform="matrix(1,0,0,1,-8234,-685.039)">
        <g transform="matrix(1,0,0,1,-0.963255,0)">
            <g transform="matrix(1,0,0,1,372.818,116.039)">
                <g transform="matrix(0.377177,0,0,0.377177,5431.99,378.903)">
                    <path d="M7539,749.175C7539,613.859 7429.14,504 7293.82,504L6688.18,504C6552.86,504 6443,613.859 6443,749.175L6443,1354.83C6443,1490.14 6552.86,1600 6688.18,1600L7293.82,1600C7429.14,1600 7539,1490.14 7539,1354.83L7539,749.175Z" style="fill:url(#_Linear1);"/>
                </g>
                <g transform="matrix(0.880128,0,0,0.880128,2095.45,183.642)">
                    <path d="M6745.44,780.399C6798.47,780.399 6833.91,748.282 6833.91,686.473L6833.91,564.976L6809.98,564.976L6809.98,688.291C6809.98,734.648 6785.13,758.281 6746.05,758.281C6705.45,758.281 6681.21,732.527 6681.21,686.776L6681.21,564.976L6657.27,564.976L6657.27,688.291C6657.27,748.282 6693.03,780.399 6745.44,780.399Z" style="fill:white;fill-rule:nonzero;"/>
                    <rect x="6892.69" y="564.976" width="23.936" height="212.09" style="fill:white;fill-rule:nonzero;"/>
                </g>
            </g>
        </g>
    </g>
    <defs>
        <linearGradient id="_Linear1" x1="0" y1="0" x2="1" y2="0" gradientUnits="userSpaceOnUse" gradientTransform="matrix(-1096,-717.109,717.109,-1096,7539,1381.66)"><stop offset="0" style="stop-color:rgb(243,18,96);stop-opacity:1"/><stop offset="1" style="stop-color:rgb(120,13,227);stop-opacity:1"/></linearGradient>
    </defs>
</svg>
