<?xml version="1.0" encoding="UTF-8" standalone="no"?>
<!DOCTYPE svg PUBLIC "-//W3C//DTD SVG 1.1//EN" "http://www.w3.org/Graphics/SVG/1.1/DTD/svg11.dtd">
<svg width="100%" height="100%" viewBox="0 0 414 414" version="1.1" xmlns="http://www.w3.org/2000/svg" xmlns:xlink="http://www.w3.org/1999/xlink" xml:space="preserve" xmlns:serif="http://www.serif.com/" style="fill-rule:evenodd;clip-rule:evenodd;stroke-linejoin:round;stroke-miterlimit:2;">
    <g transform="matrix(1,0,0,1,-9008,-2438.98)">
        <g transform="matrix(1,0,0,1,-0.963255,0)">
            <g transform="matrix(1,0,0,1,-86.0367,1753.94)">
                <path d="M9508.39,777.514C9508.39,726.476 9466.95,685.039 9415.91,685.039L9187.47,685.039C9136.44,685.039 9095,726.476 9095,777.514L9095,1005.95C9095,1056.99 9136.44,1098.42 9187.47,1098.42L9415.91,1098.42C9466.95,1098.42 9508.39,1056.99 9508.39,1005.95L9508.39,777.514ZM9265.16,986.532C9311.83,986.532 9343.03,958.266 9343.03,903.866L9343.03,796.932L9321.96,796.932L9321.96,905.466C9321.96,946.266 9300.09,967.066 9265.69,967.066C9229.96,967.066 9208.63,944.399 9208.63,904.132L9208.63,796.932L9187.56,796.932L9187.56,905.466C9187.56,958.266 9219.03,986.532 9265.16,986.532ZM9394.76,983.599L9415.83,983.599L9415.83,796.932L9394.76,796.932L9394.76,983.599Z" style="fill:white;"/>
            </g>
        </g>
    </g>
</svg>
